<svg width="394" height="114" viewBox="0 0 394 114" fill="none" xmlns="http://www.w3.org/2000/svg">
<rect x="0.4375" y="0.784912" width="190.692" height="111.815" rx="20" fill="#F4F4F4"/>
<rect x="177.353" y="62.6406" width="11.6452" height="38.5405" rx="5.82262" fill="#FFE1E8"/>
<rect x="177.353" y="79.6997" width="11.6452" height="21.4816" rx="5.82262" fill="#FF358A"/>
<rect x="153.508" y="62.6406" width="11.6452" height="38.5405" rx="5.82262" fill="#FFE1E8"/>
<rect x="153.508" y="88.5447" width="11.6452" height="12.6362" rx="5.82262" fill="#FF358A"/>
<rect x="129.663" y="62.6406" width="11.6452" height="38.5405" rx="5.82262" fill="#FFE1E8"/>
<rect x="129.663" y="71.4863" width="11.6452" height="29.6952" rx="5.82262" fill="#FF358A"/>
<rect x="105.818" y="62.6406" width="11.6452" height="38.5405" rx="5.82262" fill="#FFE1E8"/>
<rect x="105.818" y="75.2773" width="11.6452" height="25.9043" rx="5.82262" fill="#FF358A"/>
<rect x="81.9733" y="62.6406" width="11.6452" height="38.5405" rx="5.82262" fill="#FFE1E8"/>
<rect x="81.9733" y="79.6997" width="11.6452" height="21.4816" rx="5.82262" fill="#FF358A"/>
<rect x="58.1283" y="62.6406" width="11.6452" height="38.5405" rx="5.82262" fill="#FFE1E8"/>
<rect x="58.1283" y="69.5906" width="11.6452" height="31.5906" rx="5.82262" fill="#FF358A"/>
<rect x="34.2832" y="62.6406" width="11.6452" height="38.5405" rx="5.82262" fill="#FFE1E8"/>
<rect x="34.2832" y="85.3857" width="11.6452" height="15.7953" rx="5.82262" fill="#FF358A"/>
<g clip-path="url(#clip0_1_163)">
<path d="M185.352 27.2973L184.665 27.4815L183.933 24.7596L181.761 28.5207L181.143 28.1638L183.314 24.4027L180.593 25.1347L180.407 24.4425L184.307 23.3975L185.352 27.2973Z" fill="#05A402"/>
</g>
<rect x="202.398" y="1.65161" width="190.692" height="111.815" rx="20" fill="#F4F4F4"/>
<rect x="365.615" y="63.1931" width="11.874" height="38.5405" rx="5.937" fill="#E0DBFF"/>
<rect x="365.615" y="80.252" width="11.874" height="21.4816" rx="5.937" fill="#5236FF"/>
<rect x="341.301" y="63.1931" width="11.874" height="38.5405" rx="5.937" fill="#E0DBFF"/>
<rect x="341.301" y="89.0972" width="11.874" height="12.6362" rx="5.937" fill="#5236FF"/>
<rect x="316.988" y="63.1931" width="11.874" height="38.5405" rx="5.937" fill="#E0DBFF"/>
<rect x="316.988" y="72.0388" width="11.874" height="29.6952" rx="5.937" fill="#5236FF"/>
<rect x="292.674" y="63.1931" width="11.874" height="38.5405" rx="5.937" fill="#E0DBFF"/>
<rect x="292.674" y="75.8296" width="11.874" height="25.9043" rx="5.937" fill="#5236FF"/>
<rect x="268.361" y="63.1931" width="11.874" height="38.5405" rx="5.937" fill="#E0DBFF"/>
<rect x="268.361" y="80.252" width="11.874" height="21.4816" rx="5.937" fill="#5236FF"/>
<rect x="244.047" y="63.1931" width="11.874" height="38.5405" rx="5.937" fill="#E0DBFF"/>
<rect x="244.047" y="70.1431" width="11.874" height="31.5906" rx="5.937" fill="#5236FF"/>
<rect x="219.734" y="63.1931" width="11.874" height="38.5405" rx="5.937" fill="#E0DBFF"/>
<rect x="219.734" y="85.938" width="11.874" height="15.7953" rx="5.937" fill="#5236FF"/>
<g clip-path="url(#clip1_1_163)">
<path d="M376.442 26.4306L375.755 26.6148L375.023 23.8929L372.851 27.654L372.233 27.2971L374.405 23.536L371.683 24.268L371.497 23.5758L375.397 22.5308L376.442 26.4306Z" fill="#05A402"/>
</g>
<rect x="30.3772" y="31.989" width="52.007" height="10.4014" rx="5.2007" fill="#D5D5D5"/>
<rect x="219.734" y="33.7224" width="52.007" height="10.4014" rx="5.2007" fill="#D5D5D5"/>
<rect x="30.3772" y="22.4543" width="36.4049" height="6.93427" rx="3.46714" fill="#D5D5D5"/>
<rect x="219.734" y="24.188" width="36.4049" height="6.06749" rx="3.03374" fill="#D5D5D5"/>
<rect x="152.594" y="35.4561" width="36.4049" height="8.66784" rx="4.33392" fill="#FFB422"/>
<rect x="341.95" y="36.323" width="36.4049" height="8.66784" rx="4.33392" fill="#FFB422"/>
<defs>
<clipPath id="clip0_1_163">
<rect width="8.56456" height="8.56456" rx="4.28228" transform="matrix(1 0 0 -1 178.597 30.1521)" fill="white"/>
</clipPath>
<clipPath id="clip1_1_163">
<rect width="8.56456" height="8.56456" rx="4.28228" transform="matrix(1 0 0 -1 369.688 29.2854)" fill="white"/>
</clipPath>
</defs>
</svg>
