<svg width="237" height="204" viewBox="0 0 237 204" fill="none" xmlns="http://www.w3.org/2000/svg">
<rect x="0.501465" y="0.568848" width="235.863" height="202.564" fill="#F1F1F1"/>
<rect x="6.27808" y="30.1321" width="224.31" height="168.621" fill="white"/>
<rect x="24.5691" y="52.0312" width="185.802" height="122.633" rx="8" fill="#F1F1F1"/>
<rect x="215.185" y="13.708" width="14.4406" height="4.37976" rx="2.18988" fill="#C4C4C4"/>
<rect x="109.287" y="130.866" width="41.3963" height="4.37976" rx="2.18988" fill="white"/>
<rect x="35.1592" y="72.8347" width="41.3963" height="4.37976" rx="2.18988" fill="white"/>
<rect x="159.348" y="130.866" width="41.3963" height="4.37976" rx="2.18988" fill="white"/>
<rect x="109.287" y="138.531" width="41.3963" height="4.37976" rx="2.18988" fill="white"/>
<rect x="35.1592" y="80.499" width="41.3963" height="4.37976" rx="2.18988" fill="white"/>
<rect x="159.348" y="138.531" width="41.3963" height="4.37976" rx="2.18988" fill="white"/>
<rect x="109.287" y="146.196" width="23.1049" height="4.37976" rx="2.18988" fill="white"/>
<rect x="35.1592" y="88.1643" width="23.1049" height="4.37976" rx="2.18988" fill="white"/>
<rect x="159.348" y="146.196" width="23.1049" height="4.37976" rx="2.18988" fill="white"/>
<ellipse cx="8.68484" cy="15.3504" rx="2.40676" ry="2.73735" fill="#C4C4C4"/>
<ellipse cx="15.4239" cy="15.3504" rx="2.40676" ry="2.73735" fill="#C4C4C4"/>
<ellipse cx="22.1624" cy="15.3504" rx="2.40676" ry="2.73735" fill="#C4C4C4"/>
</svg>
