<svg width="10" height="10" viewBox="0 0 10 10" fill="none" xmlns="http://www.w3.org/2000/svg">
<path opacity="0.4" d="M4.37417 7.20557H1.44385" stroke="#5236FF" stroke-width="2" stroke-linecap="round" stroke-linejoin="round"/>
<path fill-rule="evenodd" clip-rule="evenodd" d="M8.14167 7.20523C8.14167 7.78323 7.67312 8.25178 7.09513 8.25178C6.51713 8.25178 6.04858 7.78323 6.04858 7.20523C6.04858 6.62681 6.51713 6.15869 7.09513 6.15869C7.67312 6.15869 8.14167 6.62681 8.14167 7.20523Z" stroke="#5236FF" stroke-width="2" stroke-linecap="round" stroke-linejoin="round"/>
<path opacity="0.4" d="M5.21143 2.60059H8.14175" stroke="#5236FF" stroke-width="2" stroke-linecap="round" stroke-linejoin="round"/>
<path fill-rule="evenodd" clip-rule="evenodd" d="M1.44385 2.60025C1.44385 3.17867 1.9124 3.6468 2.49039 3.6468C3.06838 3.6468 3.53693 3.17867 3.53693 2.60025C3.53693 2.02226 3.06838 1.55371 2.49039 1.55371C1.9124 1.55371 1.44385 2.02226 1.44385 2.60025Z" stroke="#5236FF" stroke-width="2" stroke-linecap="round" stroke-linejoin="round"/>
</svg>
