<svg width="1360" height="813" viewBox="0 0 1360 813" fill="none" xmlns="http://www.w3.org/2000/svg">
<path d="M52.6916 89.9521C29.6467 49.9521 58.5173 0 104.681 0H1359.33V813H665.764C544.182 813 431.853 748.078 371.159 642.729L52.6916 89.9521Z" fill="#F9F8FF"/>
<path d="M52.6916 89.9521C29.6467 49.9521 58.5173 0 104.681 0H1359.33V813H665.764C544.182 813 431.853 748.078 371.159 642.729L52.6916 89.9521Z" fill="url(#paint0_linear_1_5)"/>
<mask id="mask0_1_5" style="mask-type:alpha" maskUnits="userSpaceOnUse" x="44" y="0" width="1316" height="813">
<path d="M52.6916 89.9521C29.6467 49.9521 58.5173 0 104.681 0H1359.33V813H665.764C544.182 813 431.853 748.078 371.159 642.729L52.6916 89.9521Z" fill="#F9F8FF"/>
</mask>
<g mask="url(#mask0_1_5)">
<ellipse cx="352.653" cy="409.464" rx="352.653" ry="409.464" transform="matrix(0.894175 -0.447717 0.312624 0.949877 358.92 -110.382)" fill="url(#paint1_linear_1_5)" fill-opacity="0.44" style="mix-blend-mode:multiply"/>
<ellipse cx="373.026" cy="288.399" rx="373.026" ry="288.399" transform="matrix(0.209186 -0.977876 0.94473 0.32785 748.501 1215.14)" fill="url(#paint2_linear_1_5)" fill-opacity="0.42" style="mix-blend-mode:multiply"/>
</g>
<defs>
<linearGradient id="paint0_linear_1_5" x1="286.955" y1="-4.03397e-05" x2="1458.72" y2="627.387" gradientUnits="userSpaceOnUse">
<stop stop-color="#684FFF"/>
<stop offset="1" stop-color="#B871FE"/>
</linearGradient>
<linearGradient id="paint1_linear_1_5" x1="352.653" y1="0" x2="352.653" y2="818.928" gradientUnits="userSpaceOnUse">
<stop stop-color="#684FFF"/>
<stop offset="1" stop-color="#FFF8F0" stop-opacity="0"/>
</linearGradient>
<linearGradient id="paint2_linear_1_5" x1="373.026" y1="0" x2="373.026" y2="576.798" gradientUnits="userSpaceOnUse">
<stop stop-color="#684FFF"/>
<stop offset="1" stop-color="#FFF8F0" stop-opacity="0"/>
</linearGradient>
</defs>
</svg>
