<svg width="32" height="129" viewBox="0 0 32 129" fill="none" xmlns="http://www.w3.org/2000/svg">
<rect x="0.00817871" y="0.544922" width="31.7938" height="127.705" rx="15.8969" fill="url(#paint0_linear_1_141)"/>
<path d="M13.9192 79.3005C14.6841 77.9757 16.5962 77.9757 17.361 79.3005C18.1258 80.6252 17.1698 82.2812 15.6401 82.2812C14.1104 82.2812 13.1544 80.6252 13.9192 79.3005Z" fill="white"/>
<path d="M13.9192 62.3439C14.6841 61.0192 16.5962 61.0192 17.361 62.3439C18.1258 63.6687 17.1698 65.3246 15.6401 65.3246C14.1104 65.3246 13.1544 63.6687 13.9192 62.3439Z" fill="white"/>
<path d="M13.9192 45.3879C14.6841 44.0632 16.5962 44.0632 17.361 45.3879C18.1258 46.7126 17.1698 48.3686 15.6401 48.3686C14.1104 48.3686 13.1544 46.7126 13.9192 45.3879Z" fill="white"/>
<path d="M13.9192 28.4309C14.6841 27.1061 16.5962 27.1061 17.361 28.4309C18.1258 29.7556 17.1698 31.4115 15.6401 31.4115C14.1104 31.4115 13.1544 29.7556 13.9192 28.4309Z" fill="white"/>
<path d="M13.9192 12.0041C14.6841 10.6794 16.5962 10.6794 17.361 12.0041C18.1258 13.3288 17.1698 14.9848 15.6401 14.9848C14.1104 14.9848 13.1544 13.3288 13.9192 12.0041Z" fill="white"/>
<circle cx="15.9051" cy="89.5679" r="2.5" fill="white" stroke="#FF358A" stroke-width="4.53813"/>
<defs>
<linearGradient id="paint0_linear_1_141" x1="15.9051" y1="0.544922" x2="15.9051" y2="128.25" gradientUnits="userSpaceOnUse">
<stop stop-color="#6A50FF"/>
<stop offset="1" stop-color="#C4C4C4" stop-opacity="0"/>
</linearGradient>
</defs>
</svg>
