<svg width="402" height="286" viewBox="0 0 402 286" fill="none" xmlns="http://www.w3.org/2000/svg">
<rect x="63.4709" y="47.5601" width="268.901" height="188.992" stroke="#C6C6C6" stroke-width="2" stroke-linejoin="round" stroke-dasharray="3 3"/>
<rect x="0.483887" width="280.147" height="202.564" fill="#F1F1F1"/>
<rect x="7.34448" y="29.5632" width="266.426" height="168.621" fill="white"/>
<rect x="29.0676" y="51.4624" width="220.687" height="122.633" rx="8" fill="#F1F1F1"/>
<rect x="255.475" y="13.1392" width="17.1519" height="4.37976" rx="2.18988" fill="#C4C4C4"/>
<rect x="45.6042" y="90.2698" width="82.3619" height="4.75104" rx="2.37552" fill="white"/>
<rect x="45.6042" y="137.78" width="82.3619" height="4.75104" rx="2.37552" fill="white"/>
<rect x="144.834" y="90.2698" width="82.3619" height="4.75104" rx="2.37552" fill="#5236FF"/>
<rect x="45.6042" y="82.6682" width="82.3619" height="4.75104" rx="2.37552" fill="white"/>
<rect x="45.6042" y="130.178" width="82.3619" height="4.75104" rx="2.37552" fill="#FFB422"/>
<rect x="144.834" y="82.6682" width="82.3619" height="4.75104" rx="2.37552" fill="white"/>
<rect x="45.6042" y="97.8716" width="82.3619" height="4.75104" rx="2.37552" fill="white"/>
<rect x="45.6042" y="145.382" width="82.3619" height="4.75104" rx="2.37552" fill="#FFB422"/>
<rect x="144.834" y="97.8716" width="82.3619" height="4.75104" rx="2.37552" fill="white"/>
<rect x="45.6042" y="105.473" width="46.6386" height="4.75104" rx="2.37552" fill="#5236FF"/>
<rect x="45.6042" y="152.983" width="46.6386" height="4.75104" rx="2.37552" fill="white"/>
<rect x="144.834" y="105.473" width="46.6386" height="4.75104" rx="2.37552" fill="white"/>
<ellipse cx="10.2031" cy="14.7815" rx="2.85864" ry="2.73735" fill="#C4C4C4"/>
<ellipse cx="18.2036" cy="14.7815" rx="2.85864" ry="2.73735" fill="#C4C4C4"/>
<ellipse cx="26.213" cy="14.7815" rx="2.85864" ry="2.73735" fill="#C4C4C4"/>
<g filter="url(#filter0_d_1_354)">
<rect x="167.661" y="119.726" width="207.695" height="134.678" rx="15" fill="white"/>
</g>
<line x1="211.108" y1="187.65" x2="335.357" y2="187.65" stroke="#F1F1F1"/>
<line x1="209.337" y1="210.634" x2="333.586" y2="210.634" stroke="#F1F1F1"/>
<line x1="209.337" y1="176.158" x2="333.586" y2="176.158" stroke="#F1F1F1"/>
<line x1="209.337" y1="199.142" x2="333.586" y2="199.142" stroke="#F1F1F1"/>
<line x1="209.337" y1="164.666" x2="333.586" y2="164.666" stroke="#F1F1F1"/>
<line x1="218.712" y1="153.675" x2="218.712" y2="217.598" stroke="#F1F1F1"/>
<line x1="261.307" y1="153.675" x2="261.307" y2="217.598" stroke="#F1F1F1"/>
<line x1="303.911" y1="153.675" x2="303.911" y2="217.598" stroke="#F1F1F1"/>
<line x1="232.91" y1="152.957" x2="232.91" y2="216.879" stroke="#F1F1F1"/>
<line x1="275.512" y1="152.957" x2="275.512" y2="216.879" stroke="#F1F1F1"/>
<line x1="318.109" y1="152.957" x2="318.109" y2="216.879" stroke="#F1F1F1"/>
<line x1="247.109" y1="152.957" x2="247.109" y2="216.879" stroke="#F1F1F1"/>
<line x1="289.71" y1="152.957" x2="289.71" y2="216.879" stroke="#F1F1F1"/>
<line x1="332.309" y1="152.957" x2="332.309" y2="216.879" stroke="#F1F1F1"/>
<rect x="193.462" y="154.884" width="5.95387" height="2.85062" rx="1.42531" fill="#E0DBFF"/>
<rect x="194.449" y="211.896" width="5.95387" height="2.85062" rx="1.42531" fill="#E0DBFF"/>
<rect x="193.462" y="183.39" width="5.95387" height="2.85062" rx="1.42531" fill="#E0DBFF"/>
<rect x="206.355" y="234.702" width="5.70124" height="2.97694" rx="1.48847" transform="rotate(-90 206.355 234.702)" fill="#E0DBFF"/>
<rect x="236.129" y="234.702" width="5.70124" height="2.97694" rx="1.48847" transform="rotate(-90 236.129 234.702)" fill="#E0DBFF"/>
<rect x="265.898" y="234.702" width="5.70124" height="2.97694" rx="1.48847" transform="rotate(-90 265.898 234.702)" fill="#E0DBFF"/>
<rect x="295.665" y="234.702" width="5.70124" height="2.97694" rx="1.48847" transform="rotate(-90 295.665 234.702)" fill="#E0DBFF"/>
<rect x="325.44" y="234.702" width="5.70124" height="2.97694" rx="1.48847" transform="rotate(-90 325.44 234.702)" fill="#E0DBFF"/>
<rect x="193.462" y="169.137" width="5.95387" height="2.85062" rx="1.42531" fill="#E0DBFF"/>
<rect x="194.449" y="226.15" width="5.95387" height="2.85062" rx="1.42531" fill="#E0DBFF"/>
<rect x="193.462" y="197.644" width="5.95387" height="2.85062" rx="1.42531" fill="#E0DBFF"/>
<rect x="221.244" y="234.702" width="5.70124" height="2.97694" rx="1.48847" transform="rotate(-90 221.244 234.702)" fill="#E0DBFF"/>
<rect x="251.011" y="234.702" width="5.70124" height="2.97694" rx="1.48847" transform="rotate(-90 251.011 234.702)" fill="#E0DBFF"/>
<rect x="280.784" y="234.702" width="5.70124" height="2.97694" rx="1.48847" transform="rotate(-90 280.784 234.702)" fill="#E0DBFF"/>
<rect x="310.553" y="234.702" width="5.70124" height="2.97694" rx="1.48847" transform="rotate(-90 310.553 234.702)" fill="#E0DBFF"/>
<rect x="340.321" y="234.702" width="5.70124" height="2.97694" rx="1.48847" transform="rotate(-90 340.321 234.702)" fill="#E0DBFF"/>
<path d="M275.669 194.318C240.338 182.176 217.099 206.156 209.087 220.918C208.733 221.571 209.214 222.349 209.956 222.349H335.351C335.904 222.349 336.351 221.901 336.351 221.349V156.555C336.351 155.372 334.354 155.079 333.959 156.193C326.534 177.143 307.832 205.37 275.669 194.318Z" fill="#FFB422"/>
<path d="M198.421 147.282V231.851H346.772" stroke="#E0DBFF" stroke-width="3"/>
<defs>
<filter id="filter0_d_1_354" x="151.661" y="108.726" width="249.695" height="176.678" filterUnits="userSpaceOnUse" color-interpolation-filters="sRGB">
<feFlood flood-opacity="0" result="BackgroundImageFix"/>
<feColorMatrix in="SourceAlpha" type="matrix" values="0 0 0 0 0 0 0 0 0 0 0 0 0 0 0 0 0 0 127 0" result="hardAlpha"/>
<feOffset dx="5" dy="10"/>
<feGaussianBlur stdDeviation="10.5"/>
<feComposite in2="hardAlpha" operator="out"/>
<feColorMatrix type="matrix" values="0 0 0 0 0.700272 0 0 0 0 0.700272 0 0 0 0 0.700272 0 0 0 0.25 0"/>
<feBlend mode="normal" in2="BackgroundImageFix" result="effect1_dropShadow_1_354"/>
<feBlend mode="normal" in="SourceGraphic" in2="effect1_dropShadow_1_354" result="shape"/>
</filter>
</defs>
</svg>
