<svg width="96" height="103" viewBox="0 0 96 103" fill="none" xmlns="http://www.w3.org/2000/svg">
<rect width="96" height="103" rx="20" fill="#5236FF"/>
<mask id="mask0_1_481" style="mask-type:alpha" maskUnits="userSpaceOnUse" x="0" y="0" width="96" height="103">
<rect width="96" height="103" rx="20" fill="#5236FF"/>
</mask>
<g mask="url(#mask0_1_481)">
<path d="M77.1096 69.6848C77.1096 76.4862 65.4678 81.9999 51.1068 81.9999C36.7459 81.9999 25.104 76.4862 25.104 69.6848C25.104 62.8833 36.7459 57.3697 51.1068 57.3697C65.4678 57.3697 77.1096 62.8833 77.1096 69.6848Z" fill="#22137B"/>
<path d="M77.1096 68.9604C77.1096 75.7618 65.4678 81.2755 51.1068 81.2755C36.7459 81.2755 25.104 75.7618 25.104 68.9604C25.104 62.1589 36.7459 56.6453 51.1068 56.6453C65.4678 56.6453 77.1096 62.1589 77.1096 68.9604Z" fill="#22137B"/>
<path d="M77.1096 68.236C77.1096 75.0374 65.4678 80.5511 51.1068 80.5511C36.7459 80.5511 25.104 75.0374 25.104 68.236C25.104 61.4345 36.7459 55.9208 51.1068 55.9208C65.4678 55.9208 77.1096 61.4345 77.1096 68.236Z" fill="#22137B"/>
<path d="M77.1096 67.5115C77.1096 74.313 65.4678 79.8267 51.1068 79.8267C36.7459 79.8267 25.104 74.313 25.104 67.5115C25.104 60.7101 36.7459 55.1964 51.1068 55.1964C65.4678 55.1964 77.1096 60.7101 77.1096 67.5115Z" fill="#22137B"/>
<path d="M77.1096 66.7871C77.1096 73.5886 65.4678 79.1022 51.1068 79.1022C36.7459 79.1022 25.104 73.5886 25.104 66.7871C25.104 59.9857 36.7459 54.472 51.1068 54.472C65.4678 54.472 77.1096 59.9857 77.1096 66.7871Z" fill="#22137B"/>
<path d="M77.1096 66.0627C77.1096 72.8642 65.4678 78.3778 51.1068 78.3778C36.7459 78.3778 25.104 72.8642 25.104 66.0627C25.104 59.2612 36.7459 53.7476 51.1068 53.7476C65.4678 53.7476 77.1096 59.2612 77.1096 66.0627Z" fill="#22137B"/>
<path d="M77.1096 65.3383C77.1096 72.1397 65.4678 77.6534 51.1068 77.6534C36.7459 77.6534 25.104 72.1397 25.104 65.3383C25.104 58.5368 36.7459 53.0232 51.1068 53.0232C65.4678 53.0232 77.1096 58.5368 77.1096 65.3383Z" fill="#22137B"/>
<path d="M77.1096 64.6139C77.1096 71.4153 65.4678 76.929 51.1068 76.929C36.7459 76.929 25.104 71.4153 25.104 64.6139C25.104 57.8124 36.7459 52.2987 51.1068 52.2987C65.4678 52.2987 77.1096 57.8124 77.1096 64.6139Z" fill="#22137B"/>
<path d="M77.1096 63.8894C77.1096 70.6909 65.4678 76.2046 51.1068 76.2046C36.7459 76.2046 25.104 70.6909 25.104 63.8894C25.104 57.088 36.7459 51.5743 51.1068 51.5743C65.4678 51.5743 77.1096 57.088 77.1096 63.8894Z" fill="#22137B"/>
<path d="M77.1096 63.165C77.1096 69.9665 65.4678 75.4801 51.1068 75.4801C36.7459 75.4801 25.104 69.9665 25.104 63.165C25.104 56.3636 36.7459 50.8499 51.1068 50.8499C65.4678 50.8499 77.1096 56.3636 77.1096 63.165Z" fill="#22137B"/>
<path d="M77.1096 62.4406C77.1096 69.2421 65.4678 74.7557 51.1068 74.7557C36.7459 74.7557 25.104 69.2421 25.104 62.4406C25.104 55.6392 36.7459 50.1255 51.1068 50.1255C65.4678 50.1255 77.1096 55.6392 77.1096 62.4406Z" fill="#22137B"/>
<path d="M77.1096 67.6848C77.1096 74.4862 65.4678 79.9999 51.1068 79.9999C36.7459 79.9999 25.104 74.4862 25.104 67.6848C25.104 60.8833 36.7459 55.3697 51.1068 55.3697C65.4678 55.3697 77.1096 60.8833 77.1096 67.6848Z" fill="#836FFD"/>
<path d="M77.1096 66.9604C77.1096 73.7618 65.4678 79.2755 51.1068 79.2755C36.7459 79.2755 25.104 73.7618 25.104 66.9604C25.104 60.1589 36.7459 54.6453 51.1068 54.6453C65.4678 54.6453 77.1096 60.1589 77.1096 66.9604Z" fill="#836FFD"/>
<path d="M77.1096 66.236C77.1096 73.0374 65.4678 78.5511 51.1068 78.5511C36.7459 78.5511 25.104 73.0374 25.104 66.236C25.104 59.4345 36.7459 53.9208 51.1068 53.9208C65.4678 53.9208 77.1096 59.4345 77.1096 66.236Z" fill="#836FFD"/>
<path d="M77.1096 65.5115C77.1096 72.313 65.4678 77.8267 51.1068 77.8267C36.7459 77.8267 25.104 72.313 25.104 65.5115C25.104 58.7101 36.7459 53.1964 51.1068 53.1964C65.4678 53.1964 77.1096 58.7101 77.1096 65.5115Z" fill="#836FFD"/>
<path d="M77.1096 64.7871C77.1096 71.5886 65.4678 77.1022 51.1068 77.1022C36.7459 77.1022 25.104 71.5886 25.104 64.7871C25.104 57.9857 36.7459 52.472 51.1068 52.472C65.4678 52.472 77.1096 57.9857 77.1096 64.7871Z" fill="#836FFD"/>
<path d="M77.1096 64.0627C77.1096 70.8642 65.4678 76.3778 51.1068 76.3778C36.7459 76.3778 25.104 70.8642 25.104 64.0627C25.104 57.2612 36.7459 51.7476 51.1068 51.7476C65.4678 51.7476 77.1096 57.2612 77.1096 64.0627Z" fill="#836FFD"/>
<path d="M77.1096 63.3383C77.1096 70.1397 65.4678 75.6534 51.1068 75.6534C36.7459 75.6534 25.104 70.1397 25.104 63.3383C25.104 56.5368 36.7459 51.0232 51.1068 51.0232C65.4678 51.0232 77.1096 56.5368 77.1096 63.3383Z" fill="#836FFD"/>
<path d="M77.1096 62.6139C77.1096 69.4153 65.4678 74.929 51.1068 74.929C36.7459 74.929 25.104 69.4153 25.104 62.6139C25.104 55.8124 36.7459 50.2987 51.1068 50.2987C65.4678 50.2987 77.1096 55.8124 77.1096 62.6139Z" fill="#836FFD"/>
<path d="M77.1096 61.8894C77.1096 68.6909 65.4678 74.2046 51.1068 74.2046C36.7459 74.2046 25.104 68.6909 25.104 61.8894C25.104 55.088 36.7459 49.5743 51.1068 49.5743C65.4678 49.5743 77.1096 55.088 77.1096 61.8894Z" fill="#836FFD"/>
<path d="M77.1096 61.165C77.1096 67.9665 65.4678 73.4801 51.1068 73.4801C36.7459 73.4801 25.104 67.9665 25.104 61.165C25.104 54.3636 36.7459 48.8499 51.1068 48.8499C65.4678 48.8499 77.1096 54.3636 77.1096 61.165Z" fill="#836FFD"/>
<path d="M77.1096 60.4406C77.1096 67.2421 65.4678 72.7557 51.1068 72.7557C36.7459 72.7557 25.104 67.2421 25.104 60.4406C25.104 53.6392 36.7459 48.1255 51.1068 48.1255C65.4678 48.1255 77.1096 53.6392 77.1096 60.4406Z" fill="#836FFD"/>
<ellipse cx="51.1068" cy="59.8687" rx="26.0028" ry="11.7432" fill="white"/>
<path d="M56.9783 61.99C56.9783 62.6131 56.5805 63.1401 55.7848 63.5709C55.0034 63.994 53.9448 64.2671 52.6092 64.3902V65.0479C52.6092 65.2556 52.4885 65.421 52.2469 65.5441C52.0196 65.6748 51.7141 65.7402 51.3305 65.7402C50.9611 65.7402 50.6556 65.6748 50.4141 65.5441C50.1725 65.421 50.0517 65.2556 50.0517 65.0479V64.4248C49.2703 64.3863 48.5101 64.2978 47.7713 64.1594C47.0467 64.0209 46.4073 63.844 45.8532 63.6286C45.6258 63.5517 45.4624 63.467 45.363 63.3747C45.2777 63.2747 45.2351 63.1516 45.2351 63.0055C45.2351 62.8132 45.3417 62.6439 45.5548 62.4977C45.7821 62.3516 46.0379 62.2785 46.322 62.2785C46.592 62.2785 46.9259 62.34 47.3237 62.4631C47.9773 62.6708 48.5954 62.8247 49.1779 62.9247C49.7747 63.017 50.3927 63.0632 51.0321 63.0632C51.8846 63.0632 52.5382 62.9785 52.9929 62.8093C53.4475 62.6324 53.6749 62.3862 53.6749 62.0708C53.6749 61.8785 53.5399 61.7208 53.2699 61.5977C53.0142 61.4746 52.6945 61.3785 52.3109 61.3092C51.9272 61.24 51.3731 61.1515 50.6485 61.0438C49.5971 60.8977 48.7304 60.7515 48.0484 60.6053C47.3664 60.4592 46.7767 60.2284 46.2794 59.913C45.7963 59.5976 45.5548 59.1745 45.5548 58.6437C45.5548 58.0206 45.9597 57.486 46.7696 57.0398C47.5937 56.5936 48.6664 56.309 49.9878 56.1859V55.5282C49.9878 55.3205 50.1086 55.1551 50.3501 55.032C50.5917 54.9012 50.8971 54.8358 51.2666 54.8358C51.6502 54.8358 51.9557 54.9012 52.183 55.032C52.4245 55.1551 52.5453 55.3205 52.5453 55.5282V56.1628C53.8241 56.2551 55.0247 56.5167 56.1471 56.9475C56.3603 57.0244 56.5094 57.1129 56.5947 57.2129C56.6941 57.3129 56.7439 57.4321 56.7439 57.5706C56.7439 57.7629 56.6302 57.9321 56.4029 58.0783C56.1898 58.2245 55.9411 58.2975 55.6569 58.2975C55.5006 58.2975 55.3515 58.286 55.2094 58.2629C55.0815 58.2398 54.8968 58.1898 54.6552 58.1129C54.0727 57.9129 53.547 57.7629 53.0781 57.6629C52.6235 57.5629 52.0622 57.5129 51.3944 57.5129C50.6272 57.5129 50.0091 57.6052 49.5402 57.7898C49.0856 57.9744 48.8582 58.2206 48.8582 58.5283C48.8582 58.7437 48.9932 58.9206 49.2632 59.0591C49.5331 59.1899 49.8741 59.2937 50.2862 59.3707C50.6982 59.4476 51.2737 59.5361 52.0125 59.6361C53.0497 59.7745 53.8951 59.9168 54.5487 60.063C55.2165 60.2015 55.7848 60.4284 56.2537 60.7438C56.7368 61.0515 56.9783 61.4669 56.9783 61.99Z" fill="#5236FF"/>
<path d="M77.1096 54.2639C77.1096 61.0653 65.4678 66.579 51.1068 66.579C36.7459 66.579 25.104 61.0653 25.104 54.2639C25.104 47.4624 36.7459 41.9488 51.1068 41.9488C65.4678 41.9488 77.1096 47.4624 77.1096 54.2639Z" fill="#836FFD"/>
<path d="M77.1096 53.5395C77.1096 60.3409 65.4678 65.8546 51.1068 65.8546C36.7459 65.8546 25.104 60.3409 25.104 53.5395C25.104 46.738 36.7459 41.2244 51.1068 41.2244C65.4678 41.2244 77.1096 46.738 77.1096 53.5395Z" fill="#836FFD"/>
<path d="M77.1096 52.8151C77.1096 59.6165 65.4678 65.1302 51.1068 65.1302C36.7459 65.1302 25.104 59.6165 25.104 52.8151C25.104 46.0136 36.7459 40.4999 51.1068 40.4999C65.4678 40.4999 77.1096 46.0136 77.1096 52.8151Z" fill="#836FFD"/>
<path d="M77.1096 52.0906C77.1096 58.8921 65.4678 64.4058 51.1068 64.4058C36.7459 64.4058 25.104 58.8921 25.104 52.0906C25.104 45.2892 36.7459 39.7755 51.1068 39.7755C65.4678 39.7755 77.1096 45.2892 77.1096 52.0906Z" fill="#836FFD"/>
<path d="M77.1096 51.3662C77.1096 58.1677 65.4678 63.6813 51.1068 63.6813C36.7459 63.6813 25.104 58.1677 25.104 51.3662C25.104 44.5648 36.7459 39.0511 51.1068 39.0511C65.4678 39.0511 77.1096 44.5648 77.1096 51.3662Z" fill="#836FFD"/>
<path d="M77.1096 50.6418C77.1096 57.4433 65.4678 62.9569 51.1068 62.9569C36.7459 62.9569 25.104 57.4433 25.104 50.6418C25.104 43.8404 36.7459 38.3267 51.1068 38.3267C65.4678 38.3267 77.1096 43.8404 77.1096 50.6418Z" fill="#836FFD"/>
<path d="M77.1096 49.9174C77.1096 56.7188 65.4678 62.2325 51.1068 62.2325C36.7459 62.2325 25.104 56.7188 25.104 49.9174C25.104 43.1159 36.7459 37.6023 51.1068 37.6023C65.4678 37.6023 77.1096 43.1159 77.1096 49.9174Z" fill="#836FFD"/>
<path d="M77.1096 49.193C77.1096 55.9944 65.4678 61.5081 51.1068 61.5081C36.7459 61.5081 25.104 55.9944 25.104 49.193C25.104 42.3915 36.7459 36.8778 51.1068 36.8778C65.4678 36.8778 77.1096 42.3915 77.1096 49.193Z" fill="#836FFD"/>
<path d="M77.1096 48.4685C77.1096 55.27 65.4678 60.7837 51.1068 60.7837C36.7459 60.7837 25.104 55.27 25.104 48.4685C25.104 41.6671 36.7459 36.1534 51.1068 36.1534C65.4678 36.1534 77.1096 41.6671 77.1096 48.4685Z" fill="#836FFD"/>
<path d="M77.1096 47.7441C77.1096 54.5456 65.4678 60.0592 51.1068 60.0592C36.7459 60.0592 25.104 54.5456 25.104 47.7441C25.104 40.9427 36.7459 35.429 51.1068 35.429C65.4678 35.429 77.1096 40.9427 77.1096 47.7441Z" fill="#836FFD"/>
<path d="M77.1096 47.0197C77.1096 53.8212 65.4678 59.3348 51.1068 59.3348C36.7459 59.3348 25.104 53.8212 25.104 47.0197C25.104 40.2183 36.7459 34.7046 51.1068 34.7046C65.4678 34.7046 77.1096 40.2183 77.1096 47.0197Z" fill="#836FFD"/>
<ellipse cx="51.1068" cy="46.4478" rx="26.0028" ry="11.7432" fill="white"/>
<path d="M56.9783 48.5691C56.9783 49.1922 56.5805 49.7192 55.7848 50.15C55.0034 50.5731 53.9448 50.8462 52.6092 50.9693V51.627C52.6092 51.8347 52.4885 52.0001 52.2469 52.1232C52.0196 52.2539 51.7141 52.3193 51.3305 52.3193C50.9611 52.3193 50.6556 52.2539 50.4141 52.1232C50.1725 52.0001 50.0517 51.8347 50.0517 51.627V51.0039C49.2703 50.9654 48.5101 50.8769 47.7713 50.7385C47.0467 50.6 46.4073 50.4231 45.8532 50.2077C45.6258 50.1308 45.4624 50.0461 45.363 49.9538C45.2777 49.8538 45.2351 49.7307 45.2351 49.5846C45.2351 49.3923 45.3417 49.223 45.5548 49.0769C45.7821 48.9307 46.0379 48.8576 46.322 48.8576C46.592 48.8576 46.9259 48.9192 47.3237 49.0422C47.9773 49.2499 48.5954 49.4038 49.1779 49.5038C49.7747 49.5961 50.3927 49.6423 51.0321 49.6423C51.8846 49.6423 52.5382 49.5576 52.9929 49.3884C53.4475 49.2115 53.6749 48.9653 53.6749 48.6499C53.6749 48.4576 53.5399 48.2999 53.2699 48.1768C53.0142 48.0537 52.6945 47.9576 52.3109 47.8883C51.9272 47.8191 51.3731 47.7306 50.6485 47.6229C49.5971 47.4768 48.7304 47.3306 48.0484 47.1844C47.3664 47.0383 46.7767 46.8075 46.2794 46.4921C45.7963 46.1767 45.5548 45.7536 45.5548 45.2228C45.5548 44.5997 45.9597 44.0651 46.7696 43.6189C47.5937 43.1727 48.6664 42.8881 49.9878 42.765V42.1073C49.9878 41.8996 50.1086 41.7342 50.3501 41.6111C50.5917 41.4803 50.8971 41.4149 51.2666 41.4149C51.6502 41.4149 51.9557 41.4803 52.183 41.6111C52.4245 41.7342 52.5453 41.8996 52.5453 42.1073V42.7419C53.8241 42.8342 55.0247 43.0958 56.1471 43.5266C56.3603 43.6035 56.5094 43.692 56.5947 43.792C56.6941 43.892 56.7439 44.0112 56.7439 44.1497C56.7439 44.342 56.6302 44.5112 56.4029 44.6574C56.1898 44.8036 55.9411 44.8766 55.6569 44.8766C55.5006 44.8766 55.3515 44.8651 55.2094 44.842C55.0815 44.8189 54.8968 44.7689 54.6552 44.692C54.0727 44.492 53.547 44.342 53.0781 44.242C52.6235 44.142 52.0622 44.092 51.3944 44.092C50.6272 44.092 50.0091 44.1843 49.5402 44.3689C49.0856 44.5535 48.8582 44.7997 48.8582 45.1074C48.8582 45.3228 48.9932 45.4997 49.2632 45.6382C49.5331 45.769 49.8741 45.8728 50.2862 45.9498C50.6982 46.0267 51.2737 46.1152 52.0125 46.2152C53.0497 46.3536 53.8951 46.4959 54.5487 46.6421C55.2165 46.7806 55.7848 47.0075 56.2537 47.3229C56.7368 47.6306 56.9783 48.046 56.9783 48.5691Z" fill="#5236FF"/>
<path d="M71.2381 38.3269C71.2381 45.1283 59.5962 50.642 45.2352 50.642C30.8743 50.642 19.2324 45.1283 19.2324 38.3269C19.2324 31.5254 30.8743 26.0118 45.2352 26.0118C59.5962 26.0118 71.2381 31.5254 71.2381 38.3269Z" fill="#836FFD"/>
<path d="M71.2381 37.6025C71.2381 44.4039 59.5962 49.9176 45.2352 49.9176C30.8743 49.9176 19.2324 44.4039 19.2324 37.6025C19.2324 30.801 30.8743 25.2873 45.2352 25.2873C59.5962 25.2873 71.2381 30.801 71.2381 37.6025Z" fill="#836FFD"/>
<path d="M71.2381 36.878C71.2381 43.6795 59.5962 49.1932 45.2352 49.1932C30.8743 49.1932 19.2324 43.6795 19.2324 36.878C19.2324 30.0766 30.8743 24.5629 45.2352 24.5629C59.5962 24.5629 71.2381 30.0766 71.2381 36.878Z" fill="#836FFD"/>
<path d="M71.2381 36.1536C71.2381 42.9551 59.5962 48.4687 45.2352 48.4687C30.8743 48.4687 19.2324 42.9551 19.2324 36.1536C19.2324 29.3522 30.8743 23.8385 45.2352 23.8385C59.5962 23.8385 71.2381 29.3522 71.2381 36.1536Z" fill="#836FFD"/>
<path d="M71.2381 35.4292C71.2381 42.2307 59.5962 47.7443 45.2352 47.7443C30.8743 47.7443 19.2324 42.2307 19.2324 35.4292C19.2324 28.6278 30.8743 23.1141 45.2352 23.1141C59.5962 23.1141 71.2381 28.6278 71.2381 35.4292Z" fill="#836FFD"/>
<path d="M71.2381 34.7048C71.2381 41.5062 59.5962 47.0199 45.2352 47.0199C30.8743 47.0199 19.2324 41.5062 19.2324 34.7048C19.2324 27.9033 30.8743 22.3897 45.2352 22.3897C59.5962 22.3897 71.2381 27.9033 71.2381 34.7048Z" fill="#836FFD"/>
<path d="M71.2381 33.9804C71.2381 40.7818 59.5962 46.2955 45.2352 46.2955C30.8743 46.2955 19.2324 40.7818 19.2324 33.9804C19.2324 27.1789 30.8743 21.6653 45.2352 21.6653C59.5962 21.6653 71.2381 27.1789 71.2381 33.9804Z" fill="#836FFD"/>
<path d="M71.2381 33.256C71.2381 40.0574 59.5962 45.5711 45.2352 45.5711C30.8743 45.5711 19.2324 40.0574 19.2324 33.256C19.2324 26.4545 30.8743 20.9408 45.2352 20.9408C59.5962 20.9408 71.2381 26.4545 71.2381 33.256Z" fill="#836FFD"/>
<path d="M71.2381 32.5315C71.2381 39.333 59.5962 44.8467 45.2352 44.8467C30.8743 44.8467 19.2324 39.333 19.2324 32.5315C19.2324 25.7301 30.8743 20.2164 45.2352 20.2164C59.5962 20.2164 71.2381 25.7301 71.2381 32.5315Z" fill="#836FFD"/>
<path d="M71.2381 31.8071C71.2381 38.6086 59.5962 44.1222 45.2352 44.1222C30.8743 44.1222 19.2324 38.6086 19.2324 31.8071C19.2324 25.0057 30.8743 19.492 45.2352 19.492C59.5962 19.492 71.2381 25.0057 71.2381 31.8071Z" fill="#836FFD"/>
<path d="M71.2381 31.0827C71.2381 37.8841 59.5962 43.3978 45.2352 43.3978C30.8743 43.3978 19.2324 37.8841 19.2324 31.0827C19.2324 24.2812 30.8743 18.7676 45.2352 18.7676C59.5962 18.7676 71.2381 24.2812 71.2381 31.0827Z" fill="#836FFD"/>
<ellipse cx="45.2352" cy="30.5108" rx="26.0028" ry="11.7432" fill="white"/>
<path d="M51.1067 32.6321C51.1067 33.2552 50.7089 33.7822 49.9132 34.213C49.1318 34.6361 48.0732 34.9092 46.7377 35.0322V35.69C46.7377 35.8977 46.6169 36.0631 46.3754 36.1862C46.148 36.3169 45.8425 36.3823 45.4589 36.3823C45.0895 36.3823 44.784 36.3169 44.5425 36.1862C44.3009 36.0631 44.1802 35.8977 44.1802 35.69V35.0669C43.3987 35.0284 42.6386 34.9399 41.8997 34.8015C41.1751 34.663 40.5357 34.4861 39.9816 34.2707C39.7543 34.1937 39.5909 34.1091 39.4914 34.0168C39.4062 33.9168 39.3635 33.7937 39.3635 33.6476C39.3635 33.4552 39.4701 33.286 39.6832 33.1398C39.9105 32.9937 40.1663 32.9206 40.4505 32.9206C40.7204 32.9206 41.0543 32.9821 41.4522 33.1052C42.1057 33.3129 42.7238 33.4668 43.3063 33.5668C43.9031 33.6591 44.5212 33.7053 45.1605 33.7053C46.013 33.7053 46.6666 33.6206 47.1213 33.4514C47.576 33.2745 47.8033 33.0283 47.8033 32.7129C47.8033 32.5206 47.6683 32.3629 47.3984 32.2398C47.1426 32.1167 46.8229 32.0206 46.4393 31.9513C46.0557 31.8821 45.5015 31.7936 44.7769 31.6859C43.7255 31.5398 42.8588 31.3936 42.1768 31.2474C41.4948 31.1013 40.9051 30.8705 40.4078 30.5551C39.9248 30.2397 39.6832 29.8166 39.6832 29.2858C39.6832 28.6627 40.0882 28.128 40.898 27.6819C41.7221 27.2357 42.7948 26.9511 44.1162 26.828V26.1702C44.1162 25.9625 44.237 25.7972 44.4785 25.6741C44.7201 25.5433 45.0256 25.4779 45.395 25.4779C45.7786 25.4779 46.0841 25.5433 46.3114 25.6741C46.553 25.7972 46.6737 25.9625 46.6737 26.1702V26.8049C47.9525 26.8972 49.1531 27.1588 50.2755 27.5896C50.4887 27.6665 50.6379 27.7549 50.7231 27.855C50.8226 27.955 50.8723 28.0742 50.8723 28.2127C50.8723 28.405 50.7586 28.5742 50.5313 28.7204C50.3182 28.8665 50.0695 28.9396 49.7854 28.9396C49.6291 28.9396 49.4799 28.9281 49.3378 28.905C49.2099 28.8819 49.0252 28.8319 48.7837 28.755C48.2011 28.555 47.6754 28.405 47.2065 28.305C46.7519 28.205 46.1906 28.155 45.5229 28.155C44.7556 28.155 44.1375 28.2473 43.6687 28.4319C43.214 28.6165 42.9867 28.8627 42.9867 29.1704C42.9867 29.3858 43.1216 29.5627 43.3916 29.7012C43.6616 29.832 44.0026 29.9358 44.4146 30.0128C44.8266 30.0897 45.4021 30.1781 46.1409 30.2782C47.1781 30.4166 48.0235 30.5589 48.6771 30.7051C49.3449 30.8436 49.9132 31.0705 50.3821 31.3859C50.8652 31.6936 51.1067 32.109 51.1067 32.6321Z" fill="#5236FF"/>
</g>
</svg>
