<svg width="19" height="24" viewBox="0 0 19 24" fill="none" xmlns="http://www.w3.org/2000/svg">
<path d="M17.4767 17.904L13.8345 22.2224C13.3678 22.7754 12.7392 23.0841 12.0803 23.0841H2.48433C1.11255 23.0841 0 21.7595 0 20.1262V2.97057C0 1.33731 1.11255 0.0126953 2.48433 0.0126953H15.7226C17.0943 0.0126953 18.2069 1.33731 18.2069 2.97057V15.8077C18.209 16.5948 17.9455 17.3484 17.4767 17.904Z" fill="#5236FF"/>
<path d="M15.2071 12.7198C15.5976 12.3293 15.5976 11.6961 15.2071 11.3056L8.84315 4.94163C8.45262 4.5511 7.81946 4.5511 7.42893 4.94163C7.03841 5.33215 7.03841 5.96532 7.42893 6.35584L13.0858 12.0127L7.42893 17.6695C7.03841 18.0601 7.03841 18.6932 7.42893 19.0838C7.81946 19.4743 8.45262 19.4743 8.84315 19.0838L15.2071 12.7198ZM0.5 13.0127L14.5 13.0127V11.0127L0.5 11.0127L0.5 13.0127Z" fill="white"/>
</svg>
