<svg width="242" height="291" viewBox="0 0 242 291" fill="none" xmlns="http://www.w3.org/2000/svg">
<path d="M121.184 21.5659V79.3153C159.226 79.3153 190.094 113.714 190.094 156.172C190.094 198.601 159.251 233.029 121.184 233.029C83.1157 233.029 52.2733 198.63 52.2733 156.172C52.2733 139.855 56.869 124.763 64.6307 112.319H64.6051L17.8565 86.5767C6.82675 106.88 0.494873 130.686 0.494873 156.144C0.494873 230.466 54.5201 290.75 121.184 290.75C187.821 290.75 241.872 230.495 241.872 156.144C241.847 81.8212 187.821 21.5659 121.184 21.5659Z" fill="#29F0A8"/>
<path d="M7.56677 65.7608L54.3154 91.4747H54.341C66.8005 71.5414 87.4557 58.4709 110.894 58.4709V0.75C67.0813 0.75 28.7071 26.8056 7.56677 65.7608Z" fill="#FFC700"/>
<path d="M241.847 156.144C241.847 131.626 235.949 108.646 225.66 88.855H154.426C175.668 101.954 190.094 127.155 190.094 156.144C190.094 198.573 159.251 233.001 121.184 233.001V290.75C187.821 290.75 241.847 230.495 241.847 156.144Z" fill="#704DFF"/>
<path d="M121.184 21.5659V79.3153C159.226 79.3153 190.094 113.714 190.094 156.172H241.872C241.847 81.8212 187.821 21.5659 121.184 21.5659Z" fill="#FF77E9"/>
</svg>
