<svg width="58" height="443" viewBox="0 0 58 443" fill="none" xmlns="http://www.w3.org/2000/svg">
<rect x="0.63147" y="0.540039" width="57.2077" height="442.06" rx="12" fill="#F4F4F4"/>
<rect x="-0.75" y="0.75" width="26.181" height="25.6986" rx="12.8493" transform="matrix(-1 0 0 1 41.5477 396.205)" stroke="#E9E9E9" stroke-width="1.5"/>
<path opacity="0.4" d="M41.5054 406.828V406.263C41.5054 405.03 42.5228 404.031 43.7776 404.031H46.7835C48.0377 404.031 49.0551 405.03 49.0551 406.263V413.006C49.0551 414.239 48.0377 415.239 46.7835 415.239H43.7714C42.5204 415.239 41.5054 414.242 41.5054 413.013V412.442" stroke="#5236FF" stroke-width="1.5" stroke-linecap="round" stroke-linejoin="round"/>
<path d="M37.3166 409.634H44.7411" stroke="#5236FF" stroke-width="1.5" stroke-linecap="round" stroke-linejoin="round"/>
<path d="M39.1222 407.868L37.3168 409.634L39.1222 411.401" stroke="#5236FF" stroke-width="1.5" stroke-linecap="round" stroke-linejoin="round"/>
<rect x="-0.75" y="0.75" width="26.181" height="26.4551" rx="13.0905" transform="matrix(-1 0 0 1 41.9429 201.52)" stroke="#E9E9E9" stroke-width="1.5"/>
<path fill-rule="evenodd" clip-rule="evenodd" d="M28.2103 208.865H32.3808C33.6715 208.865 34.7842 209.922 34.7842 211.226V218.008C34.7842 219.385 33.7442 220.484 32.3808 220.484H27.3728C26.0815 220.484 25.0353 219.313 25.0353 218.008V212.205L28.2103 208.865Z" stroke="#5236FF" stroke-width="1.5" stroke-linecap="round" stroke-linejoin="round"/>
<path d="M28.375 208.858V210.699C28.375 211.598 27.6547 212.328 26.7652 212.33C25.9397 212.332 25.0953 212.332 25.0382 212.328" stroke="#5236FF" stroke-width="1.5" stroke-linecap="round" stroke-linejoin="round"/>
<path opacity="0.4" d="M28.4942 216.966H31.8773" stroke="#5236FF" stroke-width="1.5" stroke-linecap="round" stroke-linejoin="round"/>
<path opacity="0.4" d="M29.7738 213.831H31.8776" stroke="#5236FF" stroke-width="1.5" stroke-linecap="round" stroke-linejoin="round"/>
<rect x="-0.75" y="0.75" width="26.181" height="26.4551" rx="13.0905" transform="matrix(-1 0 0 1 41.943 166.576)" stroke="#E9E9E9" stroke-width="1.5"/>
<path fill-rule="evenodd" clip-rule="evenodd" d="M25.0252 184.157C26.7171 185.866 29.2225 186.235 31.2727 185.278C31.5754 185.155 31.8235 185.055 32.0594 185.055C32.7165 185.059 33.5344 185.702 33.9595 185.274C34.3845 184.844 33.7469 184.018 33.7469 183.35C33.7469 183.112 33.8415 182.866 33.9634 182.559C34.912 180.489 34.5459 177.958 32.8539 176.25C30.6941 174.068 27.185 174.068 25.0252 176.249C22.8614 178.435 22.8653 181.976 25.0252 184.157Z" stroke="#5236FF" stroke-width="1.5" stroke-linecap="round" stroke-linejoin="round"/>
<path opacity="0.4" d="M26.759 180.436H26.7523" stroke="#5236FF" stroke-width="1.5" stroke-linecap="round" stroke-linejoin="round"/>
<path opacity="0.4" d="M28.9785 180.436H28.9718" stroke="#5236FF" stroke-width="1.5" stroke-linecap="round" stroke-linejoin="round"/>
<path opacity="0.4" d="M31.198 180.436H31.1913" stroke="#5236FF" stroke-width="1.5" stroke-linecap="round" stroke-linejoin="round"/>
<rect x="-0.75" y="0.75" width="26.181" height="26.4551" rx="13.0905" transform="matrix(-1 0 0 1 41.943 131.633)" stroke="#E9E9E9" stroke-width="1.5"/>
<path opacity="0.4" d="M32.3422 144.669V148.265" stroke="#5236FF" stroke-width="1.5" stroke-linecap="round" stroke-linejoin="round"/>
<path opacity="0.4" d="M29.92 142.948V148.265" stroke="#5236FF" stroke-width="1.5" stroke-linecap="round" stroke-linejoin="round"/>
<path opacity="0.4" d="M27.5375 146.568V148.264" stroke="#5236FF" stroke-width="1.5" stroke-linecap="round" stroke-linejoin="round"/>
<path fill-rule="evenodd" clip-rule="evenodd" d="M27.5078 140.37H32.3718C34.0673 140.37 35.13 141.582 35.13 143.297V147.925C35.13 149.641 34.0722 150.853 32.3718 150.853H27.5078C25.8074 150.853 24.7496 149.641 24.7496 147.925V143.297C24.7496 141.582 25.8074 140.37 27.5078 140.37Z" stroke="#5236FF" stroke-width="1.5" stroke-linecap="round" stroke-linejoin="round"/>
<rect x="-0.75" y="0.75" width="26.181" height="26.4551" rx="13.0905" transform="matrix(-1 0 0 1 41.9429 96.6885)" stroke="#E9E9E9" stroke-width="1.5"/>
<path opacity="0.4" d="M27.3107 114.924V107.585" stroke="#5236FF" stroke-width="1.5" stroke-linecap="round" stroke-linejoin="round"/>
<path d="M25.1348 112.717L27.3107 114.925L29.4866 112.717" stroke="#5236FF" stroke-width="1.5" stroke-linecap="round" stroke-linejoin="round"/>
<path opacity="0.4" d="M32.6084 106.124V113.462" stroke="#5236FF" stroke-width="1.5" stroke-linecap="round" stroke-linejoin="round"/>
<path d="M34.7842 108.331L32.6083 106.124L30.4324 108.331" stroke="#5236FF" stroke-width="1.5" stroke-linecap="round" stroke-linejoin="round"/>
<rect x="-0.75" y="0.75" width="26.181" height="26.4551" rx="13.0905" transform="matrix(-1 0 0 1 41.9429 61.7451)" stroke="#E9E9E9" stroke-width="1.5"/>
<path d="M24.75 76.648H26.9253C27.724 76.6475 28.3715 75.9942 28.3719 75.1875C28.3719 74.3809 27.724 73.7275 26.9253 73.7271H24.75" stroke="#5236FF" stroke-width="1.5" stroke-linecap="round" stroke-linejoin="round"/>
<path d="M26.6799 75.1538H26.8467" stroke="#5236FF" stroke-width="1.5" stroke-linecap="round" stroke-linejoin="round"/>
<path fill-rule="evenodd" clip-rule="evenodd" d="M32.2144 70.4634H27.5699C26.0125 70.4634 24.7501 71.7384 24.7501 73.3111V77.2058C24.7501 78.7786 26.0125 80.0536 27.5699 80.0536H32.2144C33.7717 80.0536 35.0342 78.7786 35.0342 77.2058V73.3111C35.0342 71.7384 33.7717 70.4634 32.2144 70.4634Z" stroke="#5236FF" stroke-width="1.5" stroke-linecap="round" stroke-linejoin="round"/>
<path opacity="0.4" d="M32.5969 72.9263H29.6958" stroke="#5236FF" stroke-width="1.5" stroke-linecap="round" stroke-linejoin="round"/>
<rect width="27.681" height="27.9551" rx="13.8405" transform="matrix(-1 0 0 1 43.443 26.7998)" fill="#FFB422"/>
<path fill-rule="evenodd" clip-rule="evenodd" d="M34.7843 37.6129C34.7843 36.186 34.7692 35.7104 32.9005 35.7104C31.0317 35.7104 31.0166 36.186 31.0166 37.6129C31.0166 39.0399 31.0106 39.5154 32.9005 39.5154C34.7903 39.5154 34.7843 39.0399 34.7843 37.6129Z" stroke="#515151" stroke-width="1.5" stroke-linecap="round" stroke-linejoin="round"/>
<path opacity="0.4" fill-rule="evenodd" clip-rule="evenodd" d="M28.8636 37.6129C28.8636 36.186 28.8485 35.7104 26.9798 35.7104C25.1111 35.7104 25.096 36.186 25.096 37.6129C25.096 39.0399 25.09 39.5154 26.9798 39.5154C28.8696 39.5154 28.8636 39.0399 28.8636 37.6129Z" stroke="#515151" stroke-width="1.5" stroke-linecap="round" stroke-linejoin="round"/>
<path fill-rule="evenodd" clip-rule="evenodd" d="M34.7843 43.592C34.7843 42.165 34.7692 41.6895 32.9005 41.6895C31.0317 41.6895 31.0166 42.165 31.0166 43.592C31.0166 45.0189 31.0106 45.4944 32.9005 45.4944C34.7903 45.4944 34.7843 45.0189 34.7843 43.592Z" stroke="#515151" stroke-width="1.5" stroke-linecap="round" stroke-linejoin="round"/>
<path fill-rule="evenodd" clip-rule="evenodd" d="M28.8636 43.592C28.8636 42.165 28.8485 41.6895 26.9798 41.6895C25.1111 41.6895 25.096 42.165 25.096 43.592C25.096 45.0189 25.09 45.4944 26.9798 45.4944C28.8696 45.4944 28.8636 45.0189 28.8636 43.592Z" stroke="#515151" stroke-width="1.5" stroke-linecap="round" stroke-linejoin="round"/>
</svg>
