<svg width="4" height="13" viewBox="0 0 4 13" fill="none" xmlns="http://www.w3.org/2000/svg">
<path d="M3.12976 2.20038C3.12976 2.7257 2.69787 3.15759 2.17255 3.15759C1.64722 3.15759 1.21533 2.7257 1.21533 2.20038C1.21533 1.67505 1.64722 1.24316 2.17255 1.24316C2.69787 1.24316 3.12976 1.67505 3.12976 2.20038ZM1.21533 6.57202C1.21533 6.0467 1.64722 5.61481 2.17255 5.61481C2.69787 5.61481 3.12976 6.0467 3.12976 6.57202C3.12976 7.09735 2.69787 7.52924 2.17255 7.52924C1.64722 7.52924 1.21533 7.09735 1.21533 6.57202ZM1.21533 10.9437C1.21533 10.4183 1.64722 9.98645 2.17255 9.98645C2.69787 9.98645 3.12976 10.4183 3.12976 10.9437C3.12976 11.469 2.69787 11.9009 2.17255 11.9009C1.64722 11.9009 1.21533 11.469 1.21533 10.9437Z" stroke="#94ADC2"/>
</svg>
