<svg width="3" height="10" viewBox="0 0 3 10" fill="none" xmlns="http://www.w3.org/2000/svg">
<path d="M2.08249 1.72948C2.08249 2.04925 1.81878 2.31296 1.49901 2.31296C1.17924 2.31296 0.915527 2.04925 0.915527 1.72948C0.915527 1.4097 1.17924 1.146 1.49901 1.146C1.81878 1.146 2.08249 1.4097 2.08249 1.72948ZM0.915527 4.97992C0.915527 4.66014 1.17924 4.39644 1.49901 4.39644C1.81878 4.39644 2.08249 4.66014 2.08249 4.97992C2.08249 5.29969 1.81878 5.5634 1.49901 5.5634C1.17924 5.5634 0.915527 5.29969 0.915527 4.97992ZM0.915527 8.23036C0.915527 7.91058 1.17924 7.64688 1.49901 7.64688C1.81878 7.64688 2.08249 7.91058 2.08249 8.23036C2.08249 8.55013 1.81878 8.81384 1.49901 8.81384C1.17924 8.81384 0.915527 8.55013 0.915527 8.23036Z" stroke="#94ADC2"/>
</svg>
