<svg width="32" height="30" viewBox="0 0 32 30" fill="none" xmlns="http://www.w3.org/2000/svg">
<path d="M16.4034 10.4167C17.8242 10.4167 18.9867 9.32921 18.9867 8.00004C18.9867 6.67087 17.8242 5.58337 16.4034 5.58337C14.9826 5.58337 13.8201 6.67087 13.8201 8.00004C13.8201 9.32921 14.9826 10.4167 16.4034 10.4167ZM16.4034 12.8334C14.9826 12.8334 13.8201 13.9209 13.8201 15.25C13.8201 16.5792 14.9826 17.6667 16.4034 17.6667C17.8242 17.6667 18.9867 16.5792 18.9867 15.25C18.9867 13.9209 17.8242 12.8334 16.4034 12.8334ZM16.4034 20.0834C14.9826 20.0834 13.8201 21.1709 13.8201 22.5C13.8201 23.8292 14.9826 24.9167 16.4034 24.9167C17.8242 24.9167 18.9867 23.8292 18.9867 22.5C18.9867 21.1709 17.8242 20.0834 16.4034 20.0834Z" fill="#BDBDBD"/>
</svg>
