<svg width="322" height="128" viewBox="0 0 322 128" fill="none" xmlns="http://www.w3.org/2000/svg">
<path d="M21.8539 111.353C16.025 107.379 15.7601 108.174 13.3755 108.174C1.94307 109.126 12.7163 126.995 24.1884 127.005C119.556 127.086 270.866 127.214 310.929 127.243C316.398 127.247 320.601 122.581 319.978 117.146C319.923 116.664 319.857 116.417 319.726 115.95C319.377 114.7 318.757 112.538 318.066 110.293C315.946 105.206 312.59 103.758 311.177 103.669C310.117 103.493 307.521 102.981 305.613 102.345C302.434 101.073 299.166 95.6326 297.93 93.0715L295.28 86.4478C293.514 82.4735 289.716 73.9952 288.657 71.8756C287.624 70.1538 287.038 69.4391 286.246 68.9315C285.269 68.3061 284.027 67.9075 283.001 68.4468C279.842 70.1069 276.567 77.5615 275.144 81.6787L270.375 94.6611L266.931 104.729C265.518 107.997 262.48 114.797 261.632 115.857C260.572 117.182 260.042 116.917 258.717 115.592C255.75 112.837 253.242 113.208 252.359 113.737C252.141 113.846 251.63 114.082 250.875 114.395C249.755 114.859 248.58 115.62 247.426 115.252C245.905 114.768 244.521 112.835 243.88 111.618C242.732 109.675 239.8 105.047 237.257 102.08C234.077 98.3704 231.958 98.9003 230.633 98.9003C228.301 98.9003 224.716 102.08 223.214 103.669C222.861 104.111 221.254 105.577 217.651 107.909C214.047 110.24 209.614 106.937 207.847 104.994L202.284 97.3106C201.665 96.6041 199.952 94.8731 198.044 93.6014C194.589 91.4419 191.31 94.2107 189.068 96.7432C188.134 97.7979 187.536 99.2526 186.272 99.8736C185.326 100.338 184.299 100.185 183.737 99.9601C183.207 99.7835 181.565 98.4764 179.233 94.6611C176.478 89.5741 173.669 79.4708 172.609 75.055L166.516 48.0303L160.952 22.8602C160.51 20.6523 159.15 14.7528 157.242 8.81796C156.23 5.66861 155.409 3.95174 154.677 2.97813C153.386 1.25964 150.641 1.44771 149.361 3.17446C147.346 5.89219 145.749 11.0872 145.055 14.1169C142.935 23.1252 138.431 42.3074 137.371 46.9705C136.523 51.4216 133.485 59.9529 132.072 63.6622C131.984 63.9272 131.171 65.4639 128.628 69.4911C124.919 74.2601 123.329 71.8756 120.415 69.4911C115.328 64.616 110.523 69.2261 108.757 72.1406L103.988 81.1488C103.711 81.5362 103.094 82.3744 102.255 83.4679C101.134 84.929 99.8417 86.3917 98.0625 86.8672C94.79 87.7418 92.2669 85.5582 91.2703 84.0632L82.7919 71.3457C82.2924 70.7213 81.1747 69.3904 79.8135 67.915C78.6486 66.6524 77.3126 65.4242 75.6236 65.1107C74.3697 64.8779 73.3226 65.1065 72.4254 65.454C71.5429 65.7957 70.6527 66.1592 69.9059 66.7405C65.4069 70.2426 60.3573 83.9362 58.4167 88.3024C57.169 91.1097 55.3666 94.3761 54.044 96.6449C53.2672 97.9773 52.3135 99.196 51.27 100.332C50.8408 100.799 50.3135 101.376 49.6734 102.08C47.5538 104.411 44.7277 103.934 43.5796 103.404C43.0988 103.13 41.6672 102.321 39.2598 100.978C37.7316 100.125 35.9725 99.2189 34.3852 99.9559C30.5937 101.716 28.1558 109.117 26.6229 111.088C24.5034 113.472 23.7085 112.413 21.8539 111.353Z" fill="url(#paint0_linear_1_138)"/>
<path d="M1.38822 127.233C1.23465 127.233 1.06401 127.2 0.910442 127.134C0.262023 126.835 -0.0451223 126.021 0.227896 125.307C4.95453 112.601 9.54465 106.422 14.2713 106.422C17.4792 106.422 19.6122 108.033 21.3356 109.329C22.769 110.408 23.6051 111.006 24.5095 110.774C26.0623 110.392 26.9666 108.382 28.0246 106.073C29.1678 103.549 30.4647 100.692 33.0583 99.1474C36.181 97.3038 38.6723 98.865 40.8564 100.244C42.2557 101.124 43.5866 101.971 45.1394 102.071C50.5998 102.469 54.8316 92.9356 58.9098 83.701C63.3293 73.7024 67.5098 64.2685 74.0964 63.737C79.6762 63.2719 83.4132 69.5169 87.0648 75.5294C90.4434 81.11 93.6343 86.3917 97.5589 85.4117C100.528 84.6643 102.593 80.8442 104.777 76.7917C107.49 71.7425 110.305 66.5273 115.51 66.2117C118.479 66.0124 120.219 67.6235 121.636 68.9024C122.745 69.9155 123.479 70.5301 124.451 70.5301H124.468C130.441 70.5301 135.457 48.9882 139.484 31.6816C144.143 11.5515 147.026 0.157752 151.821 0.074707C151.838 0.074707 151.855 0.074707 151.872 0.074707C157.521 0.074707 161.189 16.3847 167.179 45.1681C171.837 67.6235 178.236 98.3667 184.72 98.3667C184.743 98.3667 184.766 98.3667 184.788 98.3659C185.901 98.3269 186.899 97.1908 188.064 95.892C189.839 93.8989 192.006 91.391 195.794 91.5737C200.453 91.7564 203.046 95.7259 205.538 99.5626C207.773 102.984 209.872 106.206 213.319 107.053C217.107 107.983 219.82 105.276 222.704 102.403C225.69 99.4297 229.085 96.0415 233.727 97.8186C237.668 99.3301 240.382 103.748 242.788 107.651C245.415 111.92 247.156 114.461 249.016 113.88C249.408 113.747 249.818 113.498 250.296 113.215C251.456 112.501 252.906 111.637 255.039 111.986C257.053 112.318 258.213 113.531 259.066 114.411C259.356 114.71 259.715 115.075 259.868 115.142C261.592 115.69 266.37 101.921 268.673 95.2775C274.611 78.137 278.928 66.8595 284.269 66.8595C284.321 66.8595 284.389 66.8595 284.44 66.8595C288.569 67.0422 291.504 74.1674 294.9 82.4221C298.398 90.9259 302.374 100.543 307.391 101.489C307.527 101.506 307.732 101.522 308.005 101.556C309.558 101.689 312.783 101.954 315.035 103.947C318.107 106.671 321.775 112.667 321.775 125.855C321.775 126.635 321.212 127.25 320.512 127.25C319.813 127.25 319.25 126.619 319.25 125.855C319.25 113.797 316.11 108.482 313.465 106.14C311.81 104.678 309.114 104.462 307.817 104.363C307.442 104.329 307.152 104.313 306.964 104.263C300.616 103.084 296.538 93.1681 292.596 83.6013C289.934 77.1238 286.897 69.7827 284.338 69.6664C284.32 69.6664 284.286 69.6664 284.269 69.6664C280.259 69.6664 274.936 85.0463 271.045 96.2906C265.824 111.355 262.923 119.161 259.1 117.832C258.401 117.583 257.855 117.019 257.326 116.487C256.609 115.756 255.892 114.992 254.647 114.793C253.367 114.577 252.497 115.109 251.507 115.707C250.944 116.039 250.364 116.404 249.715 116.603C245.944 117.799 243.402 113.664 240.706 109.262C238.539 105.725 236.082 101.705 232.925 100.509C229.683 99.2802 227.243 101.705 224.427 104.529C221.356 107.585 217.858 111.056 212.807 109.827C208.421 108.747 205.811 104.761 203.507 101.24C201.169 97.6359 199.139 94.5467 195.726 94.4138C193.132 94.3308 191.528 96.0581 189.873 97.9017C188.44 99.5128 186.972 101.174 184.805 101.207C176.922 101.29 171.683 79.3827 164.721 45.8325C160.95 27.7121 155.814 2.91485 151.89 2.91485H151.872C148.767 2.96467 144.808 20.0055 141.907 32.429C137.01 53.4892 132.369 73.3868 124.434 73.3868C124.417 73.3868 124.417 73.3868 124.4 73.3868C122.489 73.3702 121.158 72.1744 119.998 71.128C118.701 69.9487 117.575 68.9522 115.612 69.0685C111.773 69.301 109.418 73.6692 106.927 78.2865C104.572 82.6712 102.132 87.1889 98.1049 88.202C92.491 89.5972 88.6688 83.2692 84.9489 77.1571C81.7068 71.809 78.3794 66.328 74.267 66.5937C69.1309 67.009 65.0868 76.1439 61.1792 84.9965C56.7256 95.0449 52.1355 105.475 44.9688 104.927C42.8529 104.778 41.1295 103.682 39.6108 102.735C37.4096 101.34 36.0786 100.609 34.2528 101.672C32.3758 102.785 31.3179 105.11 30.294 107.369C29.0655 110.076 27.8027 112.866 25.0726 113.547C23.0761 114.046 21.4721 112.85 19.9193 111.687C18.3324 110.491 16.6943 109.262 14.2713 109.262C12.2748 109.262 8.1113 111.488 2.56562 126.419C2.36085 126.901 1.88307 127.233 1.38822 127.233Z" fill="#FFD546"/>
<defs>
<linearGradient id="paint0_linear_1_138" x1="160.819" y1="1.39941" x2="160.819" y2="127.25" gradientUnits="userSpaceOnUse">
<stop stop-color="#FFF0BE"/>
<stop offset="1" stop-color="#FFF8DE" stop-opacity="0"/>
</linearGradient>
</defs>
</svg>
