<svg width="322" height="102" viewBox="0 0 322 102" fill="none" xmlns="http://www.w3.org/2000/svg">
<path d="M21.8231 29.6431C16.5639 33.2772 10.3578 56.1869 5.76514 77.3987C3.13841 89.5306 12.5449 100.739 24.9579 100.759L318.551 101.246C319.767 101.248 320.671 100.017 320.114 98.935C319.984 98.6824 319.907 98.453 319.853 98.1742C319.514 96.4355 318.382 94.5095 315.316 90.118C314.334 88.7106 313.184 87.4068 311.768 86.4369C304.768 81.6428 298.675 82.7401 296.34 84.0283C295.655 84.4394 293.928 85.4565 291.604 86.7827C290.177 87.5971 288.635 88.3885 287.001 88.2168C283.7 87.8698 281.498 84.9564 280.708 83.2335C279.913 81.8204 277.529 76.7157 274.349 67.6015C272.347 60.4268 269.338 60.3339 267.286 61.7394C266.206 62.4795 265.376 63.5321 264.381 64.384L264.159 64.5738C261.813 66.5799 258.525 68.3047 256.353 66.1103C254.288 64.0227 252.92 60.365 252.359 58.0634C250.504 51.9696 246.212 38.4572 243.88 33.1583C241.296 28.8506 237.953 29.7373 235.843 31.2635C234.95 31.9101 234.309 32.8271 233.71 33.7536C230.914 38.0825 226.247 45.2636 224.539 47.7304C222.632 50.4859 220.388 50.4682 219.505 50.1149C218.898 49.8452 217.519 49.0916 215.958 47.9013C214.937 47.1232 213.936 46.2128 212.666 46.0243C211.633 45.8711 210.667 46.0549 209.958 46.3084C209.415 46.5027 208.954 46.8614 208.519 47.2406C208.114 47.594 207.612 48.0307 207.076 48.495C205.885 49.5274 204.134 50.548 202.878 49.5958C202.49 49.3017 202.061 48.9332 201.77 48.5427C200.216 46.4544 197.825 39.2544 196.72 35.5428C196.405 34.5357 195.597 32.3263 194.391 29.7587C193.373 27.5918 191.536 24.8048 189.417 25.9184C185.636 27.9054 183.249 38.9906 182.412 45.6108C181.353 53.206 179.18 69.1382 178.968 72.1056C178.729 75.4574 177.624 78.8091 176.631 82.1609C176.42 82.8735 175.967 84.0416 175.418 84.542C173.675 86.1298 172.135 82.8429 170.77 80.9205C169.1 78.5697 167.16 76.7721 165.712 75.6645C164.865 75.0164 163.899 74.5601 162.916 74.147C159.481 72.7041 154.052 70.2225 151.679 68.3964C149.798 66.9501 147.811 66.8196 146.374 67.079C145.277 67.277 144.358 67.9753 143.349 68.448C142.243 68.9656 140.697 69.4561 138.961 69.4561C135.146 69.4561 132.249 63.9805 131.278 61.2428C129.776 58.24 126.508 51.5986 125.449 49.0551C124.35 46.4181 123.069 44.1456 120.85 41.4817C119.887 40.3264 118.772 39.2236 117.341 38.7599C114.571 37.8622 112.438 39.3459 110.7 41.097C109.353 42.4541 107.941 44.1666 106.034 44.022C104.518 43.9069 103.308 42.7588 102.228 41.1954C101.596 40.2807 100.969 39.3549 100.458 38.3674C98.3075 34.209 95.3069 24.2018 93.9198 19.116C93.2593 17.2996 91.2866 12.2104 88.4347 5.66701C88.0317 4.74229 87.5877 3.81808 86.9239 3.05853C82.718 -1.75413 78.2459 4.846 76.4333 9.04797C72.1941 19.0277 63.3448 39.623 61.8611 42.1665C60.0065 45.3459 58.9467 45.6108 55.7673 45.6108C52.9569 45.7865 48.4969 41.4862 45.6441 38.1984L45.5926 38.1391C44.5605 36.9492 43.5108 35.7391 41.9856 35.3496C40.6173 35.0003 39.4646 36.1703 38.3097 36.9828C36.1006 38.5372 34.4259 37.6611 33.7766 36.8675C32.0988 35.2543 28.9123 32.3774 26.4907 30.6967C25.0807 29.7182 23.235 28.6674 21.8231 29.6431Z" fill="url(#paint0_linear_1_135)"/>
<path d="M320.491 101.25C319.945 101.25 319.45 100.911 319.279 100.379C314.877 86.3633 306.278 84.2662 301.552 84.2662C298.327 84.2662 295.649 85.8021 293.277 87.1461C291.008 88.4457 288.875 89.6568 286.606 89.3318C280.276 88.4162 277.461 80.2048 274.952 72.9533C273.11 67.5923 271.216 62.054 268.588 62.1426C267.701 62.1721 266.609 63.5161 265.568 64.801C264.016 66.7061 262.258 68.8771 259.631 68.8771C254 68.8771 251.304 59.4842 248.455 49.5449C246.049 41.1414 243.302 31.6008 239.327 31.3498C236.239 31.1135 233.287 36.4154 230.591 41.0528C227.162 46.9308 223.613 53.0007 218.733 51.3466C217.3 50.8593 216.259 49.9288 215.338 49.1166C214.144 48.0532 213.154 47.2114 211.618 47.2852C209.98 47.3739 208.94 48.3634 207.848 49.4119C206.773 50.4457 205.544 51.6272 203.787 51.3909C200.579 50.9627 198.89 45.7345 196.74 39.1181C195.102 34.0377 192.85 27.0816 190.547 27.0816C186.111 27.0816 183.62 46.6502 181.982 59.5876C179.73 77.2805 178.433 86.4962 174.048 86.0236C172.529 85.8464 171.71 84.5172 170.772 82.9517C169.714 81.209 168.264 78.8165 165.244 76.7341C164.118 75.9661 163.589 75.7741 162.633 75.4492C161.695 75.1243 160.432 74.696 158.129 73.5293C155.348 72.1263 153.608 70.9595 152.328 70.1177C150.707 69.0396 149.905 68.4931 148.404 68.3012C146.442 68.0501 145.384 68.6704 144.138 69.394C143.149 69.97 142.023 70.6346 140.453 70.7823C133.918 71.3878 130.13 62.7776 126.479 54.4481C123.323 47.2852 120.064 39.8566 115.747 39.8566C113.734 39.8566 112.642 40.979 111.396 42.2786C110.065 43.6521 108.581 45.2176 105.936 45.2176C100.46 45.2176 97.286 34.9829 93.6006 23.1383C90.7513 13.9522 87.2024 2.52119 83.4658 2.52119C80.2752 2.52119 77.3918 9.77264 73.7234 18.9588C71.1641 25.3684 67.9906 33.3583 63.6739 41.4368C61.9848 44.6121 60.0397 46.34 57.7193 46.7093C54.9723 47.1671 51.8329 45.6607 47.8745 41.9685C47.2432 41.3777 46.6119 40.6541 45.9806 39.9009C44.4451 38.0991 42.9607 36.3859 41.2545 36.5336C40.4355 36.5927 39.9407 37.021 39.2924 37.5526C38.5416 38.1729 37.6032 38.9409 36.1529 39.0147C33.5595 39.0738 31.4438 36.8142 29.3964 34.5694C27.5025 32.5017 25.5404 30.3603 23.5441 30.3603C18.562 30.3603 12.3174 51.2433 2.66028 100.202C2.50672 100.911 1.8413 101.354 1.15882 101.221C0.476344 101.088 0.0156701 100.438 0.152166 99.7586C12.1297 39.0147 17.436 27.8939 23.5271 27.8939C26.6494 27.8939 29.1063 30.567 31.2562 32.93C32.9112 34.7466 34.7027 36.6074 36.0164 36.5484C36.5966 36.5188 36.9719 36.2382 37.6373 35.677C38.4222 35.0272 39.4118 34.2001 41.0327 34.082C44.0868 33.8605 46.1171 36.2235 47.9086 38.3354C48.4717 39 49.0347 39.6646 49.5978 40.1962C52.8907 43.2534 55.3989 44.5973 57.2757 44.2872C58.7601 44.0361 60.108 42.7365 61.4047 40.3144C65.6531 32.354 68.8096 24.438 71.3347 18.0727C75.6856 7.21765 78.552 0.0400391 83.4658 0.0400391C89.0621 0.0400391 92.2869 10.4077 96.0234 22.4147C98.8387 31.4679 102.336 42.7365 105.936 42.7365C107.404 42.7365 108.274 41.9242 109.554 40.5802C110.936 39.1477 112.642 37.3754 115.747 37.3754C121.719 37.3754 125.148 45.1881 128.799 53.4586C132.11 60.9611 135.505 68.7147 140.214 68.3012C141.204 68.2125 141.971 67.7695 142.841 67.2526C144.206 66.4551 145.896 65.4656 148.728 65.8348C150.826 66.1006 152.055 66.9277 153.744 68.0649C155.024 68.9214 156.628 69.9996 159.272 71.3288C161.422 72.4069 162.565 72.8056 163.469 73.1158C164.476 73.4702 165.295 73.7361 166.694 74.7108C170.158 77.0886 171.847 79.8651 172.956 81.6964C173.765 83.0157 175.057 83.1111 175.592 81.6591C177.171 77.3748 178.523 66.8071 179.474 59.2922C182.135 38.3354 184.353 24.6005 190.564 24.6005C194.727 24.6005 196.877 31.2907 199.18 38.3797C200.511 42.5002 202.524 48.7178 204.145 48.9393C204.657 48.9984 205.22 48.4963 206.09 47.6397C207.285 46.5025 208.905 44.937 211.499 44.8041C214.126 44.6712 215.679 46.0447 217.061 47.2705C217.88 47.9941 218.648 48.6735 219.586 48.9984C222.504 49.9879 225.507 44.8041 228.424 39.8123C231.649 34.2887 235.044 28.588 239.515 28.8686C245.282 29.2231 248.012 38.7637 250.912 48.8655C253.267 57.0769 255.928 66.3812 259.648 66.3812C261.047 66.3812 262.344 64.7862 263.606 63.2355C265.005 61.5075 266.456 59.7205 268.503 59.6467C272.922 59.4842 275.021 65.3474 277.375 72.1558C279.644 78.7279 282.204 86.1713 286.998 86.8655C288.397 87.0722 290.069 86.1123 292.031 84.9898C294.54 83.5573 297.662 81.7702 301.569 81.7702C305.937 81.7702 316.652 83.513 321.719 99.6404C321.924 100.305 321.549 100.999 320.883 101.206C320.747 101.235 320.61 101.25 320.491 101.25Z" fill="#5236FF"/>
<defs>
<linearGradient id="paint0_linear_1_135" x1="161.084" y1="1.37305" x2="161.084" y2="101.25" gradientUnits="userSpaceOnUse">
<stop stop-color="#D1EEFF"/>
<stop offset="1" stop-color="#D3EFFF" stop-opacity="0"/>
</linearGradient>
</defs>
</svg>
