<svg width="23" height="23" viewBox="0 0 23 23" fill="none" xmlns="http://www.w3.org/2000/svg">
<g clip-path="url(#clip0_2_43)">
<path d="M14.6334 5.08341C15.5287 5.2581 16.3516 5.69598 16.9966 6.34102C17.6416 6.98606 18.0795 7.80891 18.2542 8.70425L14.6334 5.08341ZM14.6334 1.41675C16.4935 1.6234 18.2282 2.45641 19.5524 3.77901C20.8767 5.1016 21.7119 6.83517 21.9209 8.69508L14.6334 1.41675ZM21.0042 16.0101V18.7601C21.0052 19.0154 20.953 19.2681 20.8507 19.502C20.7484 19.7359 20.5984 19.9459 20.4103 20.1185C20.2222 20.291 20.0001 20.4224 19.7582 20.5042C19.5164 20.586 19.2601 20.6164 19.0059 20.5934C16.1851 20.2869 13.4756 19.323 11.095 17.7792C8.88022 16.3719 7.00244 14.4941 5.59504 12.2792C4.04586 9.88785 3.08177 7.16516 2.78088 4.33175C2.75797 4.07826 2.7881 3.82278 2.86934 3.58157C2.95058 3.34036 3.08115 3.11871 3.25275 2.93073C3.42434 2.74275 3.6332 2.59256 3.86602 2.48973C4.09884 2.38689 4.35052 2.33365 4.60504 2.33341H7.35504C7.79991 2.32904 8.23119 2.48657 8.56849 2.77665C8.9058 3.06674 9.12611 3.46957 9.18838 3.91008C9.30445 4.79014 9.51971 5.65425 9.83004 6.48592C9.95338 6.81401 9.98007 7.17059 9.90696 7.51339C9.83385 7.85619 9.664 8.17085 9.41754 8.42008L8.25338 9.58425C9.5583 11.8792 11.4585 13.7793 13.7534 15.0842L14.9175 13.9201C15.1668 13.6736 15.4814 13.5038 15.8242 13.4307C16.167 13.3576 16.5236 13.3843 16.8517 13.5076C17.6834 13.8179 18.5475 14.0332 19.4275 14.1492C19.8728 14.2121 20.2795 14.4364 20.5702 14.7795C20.8609 15.1225 21.0154 15.5605 21.0042 16.0101Z" stroke="#5236FF" stroke-width="2" stroke-linecap="round" stroke-linejoin="round"/>
</g>
<defs>
<clipPath id="clip0_2_43">
<rect width="22" height="22" fill="white" transform="translate(0.837891 0.500061)"/>
</clipPath>
</defs>
</svg>
